<svg id="Calque_1" data-name="Calque 1" xmlns="http://www.w3.org/2000/svg" viewBox="0 0 687.37 850.39"><defs><style>.cls-2{fill:#1d1d1b}</style></defs><text transform="translate(104.85 832.17)" style="fill:#1d1d1b;font-size:75.28px;font-family:ImperatorSmallCaps">PRINTING</text><path class="cls-2" d="M220.35 772.78c0-1.18-1.26-1.95-3.76-2.32a69.88 69.88 0 0 0-9.63-.55q-4.53 0-14.5.69l-3.83.26c-3.73.2-6.88.33-9.43.42s-4.55.13-6 .13c-1.82 0-4.57-.13-8.27-.4s-7.63-.6-11.82-1l-1-.14.28 1.5a19.73 19.73 0 0 1 7.79 6.57 16.8 16.8 0 0 1 2.73 8.06q.54 10.25.82 21.19t.27 21.46q0 10.53-.14 19.95c-.08 6.29-.23 13.77-.4 22.41a13.19 13.19 0 0 1-2.33 7.25 15.34 15.34 0 0 1-5.6 4.92v1.1q7.51-.69 14.07-.69c4.39 0 9.53.23 15.45.69v-1.1a12.7 12.7 0 0 1-6-5.12 17.22 17.22 0 0 1-2.25-7.86q-.54-9.57-.82-21.47t-.27-22.68h2.45a24 24 0 0 0 2.6.14c1.1 0 2.69-.05 4.78-.14h4.79q4.93 0 8.2.27a32.75 32.75 0 0 1 9.09 1.85 10.35 10.35 0 0 1 5.68 5.26l1.77.14c-.08-1.46-.18-2.78-.27-4a40.5 40.5 0 0 1-.27-4.92c0-1.46 0-2.66.14-3.62s.22-2.12.4-3.48.32-2.73.41-3.84h-1.37q-2.58 4-5.46 5a25.15 25.15 0 0 1-7.52 1.16 8.33 8.33 0 0 1-1.78.13h-2.19c-1 .1-1.77.15-2.32.15-1.91 0-4.88-.1-8.88-.28-4.19-.18-7.39-.27-9.57-.27 0-2.46-.05-6-.13-10.53v-10c0-4.65.08-8.84.27-12.57l.14-2.47a32.61 32.61 0 0 1 1-7.24c1.82-.09 4.5-.27 8.06-.54q6-.55 8.74-.55c6.92 0 12.22.68 15.86 2.05s6.15 3 7.51 5a17.82 17.82 0 0 1 1 1.92c.65 1.28 1.23 1.91 1.78 1.91s.82-.4.82-1.23a46.28 46.28 0 0 0-.41-5.33 48.5 48.5 0 0 1-.68-7.38M333.53 786.86a50.42 50.42 0 0 0-18.19-12.31 64 64 0 0 0-24.19-4.37 56.5 56.5 0 0 0-40.59 17 58.91 58.91 0 0 0-12.38 18.59 58.12 58.12 0 0 0 0 44.56 58.05 58.05 0 0 0 12.38 18.52 57 57 0 0 0 40.59 16.88 59.09 59.09 0 0 0 22.27-4.23 55 55 0 0 0 18.39-12 55.74 55.74 0 0 0 12.31-18.53 60.13 60.13 0 0 0 4.44-23.16 65 65 0 0 0-3.83-22.49 53.83 53.83 0 0 0-11.2-18.38m-1.37 64.86a41.12 41.12 0 0 1-23.52 23.92 46.89 46.89 0 0 1-17.49 3.21 34.86 34.86 0 0 1-17.09-4.37 43.1 43.1 0 0 1-13.74-12.17 61.16 61.16 0 0 1-9-17.56 64.94 64.94 0 0 1-3.21-20.3 56.72 56.72 0 0 1 3.15-19.21 43.5 43.5 0 0 1 8.95-15.1 40 40 0 0 1 13.74-9.7 43 43 0 0 1 17.2-3.52 41.37 41.37 0 0 1 17.57 3.76 39.34 39.34 0 0 1 14.07 11.07 53.83 53.83 0 0 1 9.3 17.7 75.59 75.59 0 0 1 3.35 23.23 52.58 52.58 0 0 1-3.28 18.94M443.28 771.14a31.39 31.39 0 0 1-5.33-.68c-1.74-.28-3.06-.46-4-.55V771c3 2 4.92 4.17 5.73 6.49a32.5 32.5 0 0 1 1.51 9q.54 10.26.82 21.19c.18 7.28.27 14.45.27 21.45q0 20.38-.14 30.62h-1.09l-75.31-89c-2-.09-4-.22-6-.41l-7.66-.68.41 1.23a16.77 16.77 0 0 1 6.14 6.49 22.68 22.68 0 0 1 2.19 8v1q.27 5.86.28 14.2 0 5.76-.14 14.77-.14 10.53-.14 14 0 27.6-.27 41.41a13.12 13.12 0 0 1-2.32 7.24 15.41 15.41 0 0 1-5.61 4.93v1.09c1-.1 1.78-.18 2.33-.28l3.14-.2c.73 0 2.06-.07 4-.07q6.56 0 15.44.68V883a12.63 12.63 0 0 1-5.94-5.13 17.22 17.22 0 0 1-2.26-7.85q-1.09-21.87-1.1-41v-8.89c-.08-4.37-.13-7.7-.13-10 0-5.56.08-10.39.28-14.49h.81l75.46 87.21c2.18 2.63 3.54 4 4.09 4 .83 0 1.24-.87 1.24-2.6 0-.63-.05-2-.14-4.24a18.78 18.78 0 0 1-.14-2.32c-.18-3.92-.27-9.15-.27-15.72q0-6.28.14-18.18c.08-7.2.13-12.11.13-14.76q0-20.91.14-27.33c0-3.66 0-6.47.14-8.48s.18-4 .27-5.88a34.54 34.54 0 0 1 2.05-9.77 11 11 0 0 1 5.46-6.22v-1c-1.18.09-2.86.19-5.05.28-4.1.36-7.25.54-9.43.54M560.15 869.68l-32.94-82.55-6.29-16h-3.69c-2.56 0-5.4-.06-8.55-.2s-5.76-.3-7.85-.48l.26 1a27.86 27.86 0 0 1 7.45 7.17 14.1 14.1 0 0 1 2.95 8.14 7.13 7.13 0 0 1-.42 2.32L478 869q-4.65 11.22-15 14.49l-.68.82a91 91 0 0 1 12.16-.82 75.58 75.58 0 0 1 11.08.82v-.82a7.44 7.44 0 0 1-2.47-5.33 19.64 19.64 0 0 1 1.65-6.42L496.87 840a177 177 0 0 1 19-.95q7.51 0 18 .95l10.67 29.26a21.27 21.27 0 0 1 .75 2.59 13 13 0 0 1 .33 2.74c0 1.18-.81 2.92-2.45 5.19q-1.92 2.6-1.92 3.69v.82a106.92 106.92 0 0 1 16.13-1.22 93.1 93.1 0 0 1 15 1.22v-1q-8.21-3.27-12.3-13.67M531 833.46c-5 .27-10.16.42-15.44.42s-10.26-.15-15.18-.42v-.68l15.73-38.54h.4L531 832.78ZM672.37 862.17a42.17 42.17 0 0 1-3.41 4.1 32.76 32.76 0 0 1-7.66 5.33 50.74 50.74 0 0 1-9.7 3.76 78 78 0 0 1-10.26 2.12 69.93 69.93 0 0 1-9.42.68 38.45 38.45 0 0 1-17.64-4.31 48 48 0 0 1-15-12 59.1 59.1 0 0 1-10.18-17.36 56.09 56.09 0 0 1-3.69-20.1 55.43 55.43 0 0 1 3.37-19.39 45.47 45.47 0 0 1 9.64-15.64 42.85 42.85 0 0 1 15.24-10.26 52.69 52.69 0 0 1 19.89-3.62q13 0 22.28 4.64a22.11 22.11 0 0 1 6.22 4.45 53.93 53.93 0 0 1 4.72 5.81c1.09 1.64 1.81 2.46 2.19 2.46.63 0 .95-.77.95-2.32 0-1.1-.09-2.88-.27-5.33-.28-3-.41-5.15-.41-6.43a40.86 40.86 0 0 0-.21-4.71c-.14-1.15-.44-1.71-.89-1.71a3.2 3.2 0 0 0-1.36.4 6.58 6.58 0 0 1-2 .41 41.84 41.84 0 0 1-8.21-1.22l-2.18-.42a215.3 215.3 0 0 0-12.51-2 90.7 90.7 0 0 0-11-.75 61.68 61.68 0 0 0-24.06 4.65 57 57 0 0 0-31.37 31.85 60.7 60.7 0 0 0-4.3 22.69 56.59 56.59 0 0 0 4.44 22.28 58.16 58.16 0 0 0 12.36 18.52 57 57 0 0 0 18.46 12.44 56.37 56.37 0 0 0 22.14 4.43 100.34 100.34 0 0 0 19.42-1.7 68.84 68.84 0 0 0 16.94-5.81 10.36 10.36 0 0 0 5.06-5.2q.27-.68 1.5-3 1.92-4 2.8-6.09a9.14 9.14 0 0 0 .89-2.93.72.72 0 0 0-.81-.82c-.19 0-.83.69-1.92 2M798.39 805.24a54 54 0 0 0-11.21-18.38A50.42 50.42 0 0 0 769 774.55a64 64 0 0 0-24.18-4.37 56.59 56.59 0 0 0-40.6 17 58.88 58.88 0 0 0-12.37 18.59 58 58 0 0 0 0 44.56 58 58 0 0 0 12.37 18.52 57 57 0 0 0 40.6 16.88 59.17 59.17 0 0 0 22.27-4.23 55.18 55.18 0 0 0 18.39-12 55.87 55.87 0 0 0 12.3-18.53 60 60 0 0 0 4.44-23.16 65 65 0 0 0-3.82-22.49m-12.58 46.48a41.12 41.12 0 0 1-23.52 23.92 46.8 46.8 0 0 1-17.48 3.21 34.89 34.89 0 0 1-17.1-4.37A43 43 0 0 1 714 862.31a60.66 60.66 0 0 1-9-17.56 64.65 64.65 0 0 1-3.22-20.3 56.72 56.72 0 0 1 3.15-19.21 43.5 43.5 0 0 1 9-15.1 40.13 40.13 0 0 1 13.74-9.7 43 43 0 0 1 17.14-3.44 41.32 41.32 0 0 1 17.56 3.76 39.25 39.25 0 0 1 14.07 11.07 53.83 53.83 0 0 1 9.3 17.7 75.29 75.29 0 0 1 3.35 23.23 52.37 52.37 0 0 1-3.28 18.94M839.51 401.68a459.06 459.06 0 0 0-127.15-14.48q-3.29.09-6.6.24h-.99q-8 .36-15.91 1-16.9 1.36-33.23 3.93a466.91 466.91 0 0 0-46.57 9.74c0-2.14.09-4 .15-5.56q.24-5.13.47-10a65.89 65.89 0 0 1 1.73-10.87q17.69-4.85 34.41-8.34Q660.9 364.2 675 362q9.16-1.42 17.88-2.5c.15 0 .31 0 .46-.06l1-.12c3-.36 6-.71 9-1 65.81-6.9 109.08.35 109.08.35a461.49 461.49 0 0 0-115-14.66 256.11 256.11 0 0 0-234-151.31h-4.09a257.05 257.05 0 0 0-34.66 2.87c-2.4.5-4.83 1-7.28 1.58a3.65 3.65 0 0 0 .18-.41 254.71 254.71 0 0 0-30.56 7.49q-2.7.84-5.39 1.75c-2 .66-4 1.36-5.94 2.08s-3.86 1.43-5.77 2.18a254.96 254.96 0 0 0-11.68 4.92 254 254 0 0 0-23.28 12A256.67 256.67 0 0 0 225.08 543.7C187.24 564.45 161 578.44 161 578.44s25.17-5.3 69.67-21.71q14.19-5.25 30.92-12 4.72-1.92 9.64-4c.43-.18.85-.37 1.28-.54 15.35-6.47 32.11-13.94 50.12-22.54-.08 3.81-.17 7.76-.24 11.88a22.61 22.61 0 0 1-4 12.35 26.29 26.29 0 0 1-9.57 8.41v1.86c2.26-.2 4.47-.38 6.65-.53l-15.68 8.77c-.51-.75-1-1.49-1.54-2.25.38.83.79 1.63 1.18 2.44q-7.61 4.23-15 8.31c-.4.24-.82.46-1.22.68l-8.21 4.56c-9.36 5.18-18.29 10.07-26.6 14.64-35.81 19.59-60.32 32.67-60.32 32.67s24.63-5.17 68.25-21.18a256.62 256.62 0 0 0 313.09 82.46 227 227 0 0 1-77.82 14.79h-3c-83 0-155.79-44.57-196.16-111.36l1.34-.55q7.59-3.15 15.65-6.62a215.2 215.2 0 0 0 294.85 71.65c1.07-.65 2.15-1.3 3.21-2a215.23 215.23 0 0 0 25.34-18.76q8.08-7 15.43-14.69c.19-.19.36-.39.55-.58 2.53-2.67 5-5.4 7.34-8.19q2.91-3.42 5.67-7a208.47 208.47 0 0 0 21.8-34.35c.06-.09.09-.18.14-.25a208.4 208.4 0 0 0 11.79-158.79q7.26-1.21 14.26-2.21c.15 0 .31-.05.47-.06 1.59 5.93 3 12 4.1 18.08a236.53 236.53 0 0 1 4 43.12c0 6.19-.25 12.31-.71 18.38a258.82 258.82 0 0 0-1.85-80.33c74-9.7 123.72-1.38 123.72-1.38m-369.74 56v-15.1c0-2.25-.09-4.33-.12-6.26q10.91-6.51 21.74-12.36l15 17.37a601.678 601.678 0 0 0-36.63 20v-3.55m.14-54.59c0-.77.07-1.56.09-2.31h1.41l.91 1.06c-.81.41-1.61.83-2.41 1.25m42.15 10.18A569.93 569.93 0 0 1 594 380.8c.14 1.39.26 2.85.33 4.37.36 6.8.66 13.76.93 20.83a524 524 0 0 0-67.9 25.31ZM266.82 520.66l-1.23.69a236.13 236.13 0 0 1-6.81-56.35 233.25 233.25 0 0 1 62.84-159.77q6-6.4 12.44-12.35a230.55 230.55 0 0 1 36.4-27.37c.56-.35 1.13-.68 1.69-1 4.33-2.57 8.74-5 13.25-7.31.44-.23.9-.46 1.34-.67 4.38-2.19 8.82-4.26 13.35-6.17a225.78 225.78 0 0 1 69.42-17.07 1.63 1.63 0 0 1 .31 0q9.29-.76 18.75-.77c83.18 0 156.05 44.73 196.37 111.73h-.47c-7 .22-14 .59-20.87 1.12a213.76 213.76 0 0 0-137.42-81.97 199.39 199.39 0 0 1 109.29 85 464.84 464.84 0 0 0-47.85 9.33c-2.41-.37-4.34-.63-5.69-.77v1.87a2.56 2.56 0 0 1 .36.26 519.72 519.72 0 0 0-88.76 32.31l-27.95-33c-3.42-.15-6.84-.39-10.27-.69s-7.76-.71-13.05-1.17l.7 2.09q7.46 4.91 10.49 11.08a39.07 39.07 0 0 1 3.73 13.65v1.63q.46 10 .47 24.24v.52q-15 8.3-28.91 17c-5.83 3.62-11.89 7.35-18.13 11.15.28-2.28.49-4.31.63-6.05h-2.33c-3 4.52-6.06 7.35-9.33 8.52a42.7 42.7 0 0 1-12.82 2 14.5 14.5 0 0 1-3 .22H380c-1.7.17-3 .25-3.95.25q-4.91 0-15.16-.47-10.74-.46-16.32-.47 0-6.3-.24-18v-17q0-11.88.47-21.45l.24-4.2q.45-8.62 1.62-12.35c3.1-.16 7.7-.47 13.76-.94q10.26-.93 14.93-.93 17.7 0 27 3.5t12.83 8.63a29.53 29.53 0 0 1 1.63 3.26q1.64 3.27 3 3.27c.94 0 1.41-.7 1.41-2.11a81 81 0 0 0-.71-9.09 83.51 83.51 0 0 1-1.17-12.59c0-2-2.14-3.34-6.41-4a116.69 116.69 0 0 0-16.44-.94q-7.69 0-24.72 1.16l-6.53.47q-9.56.48-16.08.7t-10.26.24q-4.66 0-14.11-.7t-20.17-1.63L303 357l.47 2.57q9.11 4.65 13.29 11.19a28.69 28.69 0 0 1 4.67 13.76q.93 17.49 1.39 36.14t.47 36.61q0 16.71-.2 31.8a6057.274 6057.274 0 0 1-56.31 31.64m117.65-67.17c-13.25 7.84-27 15.85-40.89 23.82-.13-8.41-.19-16.61-.19-24.52h4.2a38.78 38.78 0 0 0 4.45.16c1.86 0 4.59-.08 8.16-.24h8.17q8.39 0 14 .47c.75.05 1.44.15 2.14.23m-39.22 74.63q-.57-9.84-.95-21.09c34-17 71.93-37.87 113-63.23q-.12 10.21-.12 14.35v10.71l-1.37.85c-32 19.94-71.22 42.79-109.62 64.59a33.42 33.42 0 0 1-.94-6.18m319.31-77.46a193.66 193.66 0 0 1-20.06 86.07 196.37 196.37 0 0 1-12 20.92 198.91 198.91 0 0 1-13 17.53l-1.77 2.08c-1.32 1.56-2.68 3.09-4 4.6q-4.16 4.56-8.56 8.86a201.14 201.14 0 0 1-292.23-13.26c40.28-17.57 89-41.65 144.13-74.16q-.12 15.07-.33 25.51a22.48 22.48 0 0 1-4 12.36 26.5 26.5 0 0 1-9.56 8.4v1.86c1.71-.15 3-.31 4-.47l5.36-.35c1.25-.08 3.5-.12 6.77-.12q11.19 0 26.35 1.17v-1.83a21.53 21.53 0 0 1-10.14-8.75 29.2 29.2 0 0 1-3.85-13.4q-.84-16.62-1.28-32.29c5.84-3.53 11.73-7.11 17.71-10.84q18.76-11.65 37.35-21.3c6.8-3.56 13.6-7 20.34-10.13 17-8 33.76-14.95 50.14-20.86.16 8.67.26 17.25.26 25.69q0 34.75-.24 52.24h-1.85l-48.31-57.07a549.2 549.2 0 0 0-20.34 10.13l74.7 86.35q5.6 6.75 7 6.75 2.08 0 2.09-4.43c0-1.08-.08-3.5-.23-7.22a33.15 33.15 0 0 1-.23-4q-.46-10-.47-26.82 0-10.71.23-31 .22-18.42.24-25.18 0-18.21.07-29.95c17.94-6 35.37-10.84 52.06-14.72a195.38 195.38 0 0 1 3.68 37.64" transform="translate(-152.14 -192.71)"/></svg>